<svg width="512" height="512" viewBox="0 0 512 512" fill="none" xmlns="http://www.w3.org/2000/svg">
<g clip-path="url(#clip0_1_2)">
<circle cx="256" cy="256" r="256" fill="#FF8BA7"/>
<path d="M180.069 183.099H84.0986V302.745H155.972V254.972H107.985V230.873H180.069V326.844H60V159H180.069V183.099Z" fill="#FFFFFE"/>
<path d="M315.782 254.972H219.811V326.844H195.713V230.873H291.684V183.099H195.713V159H315.782V254.972Z" fill="#FFFFFE"/>
<path d="M451.284 254.972H381.102L451.284 308.876V326.844H427.185L331.425 254.972V230.873H427.185V183.099H331.425V159H451.284V254.972Z" fill="#FFFFFE"/>
<path d="M134.536 415.75C130.136 415.75 126.786 414.55 124.486 412.15C122.286 409.75 121.186 406.6 121.186 402.7C121.186 398.2 122.436 394.6 124.936 391.9C127.536 389.2 131.136 387.85 135.736 387.85C140.136 387.85 143.436 388.95 145.636 391.15C147.936 393.25 149.086 396.4 149.086 400.6C149.086 405.2 147.786 408.9 145.186 411.7C142.586 414.4 139.036 415.75 134.536 415.75ZM171.897 415.75C168.097 415.75 165.397 413.75 163.797 409.75C162.297 405.75 161.547 399.35 161.547 390.55C161.547 377.55 163.397 365.2 167.097 353.5C167.997 350.6 169.447 348.5 171.447 347.2C173.547 345.8 176.447 345.1 180.147 345.1C182.147 345.1 183.547 345.35 184.347 345.85C185.147 346.35 185.547 347.3 185.547 348.7C185.547 350.3 184.797 353.9 183.297 359.5C182.297 363.5 181.497 367 180.897 370C180.297 372.9 179.797 376.55 179.397 380.95C182.097 373.15 185.297 366.55 188.997 361.15C192.797 355.75 196.647 351.75 200.547 349.15C204.547 346.45 208.297 345.1 211.797 345.1C215.297 345.1 217.747 345.9 219.147 347.5C220.647 349.1 221.397 351.55 221.397 354.85C221.397 358.05 220.447 363.85 218.547 372.25C217.747 375.85 217.197 378.55 216.897 380.35C221.897 368.05 227.447 359.1 233.547 353.5C239.647 347.9 245.347 345.1 250.647 345.1C257.147 345.1 260.397 348.35 260.397 354.85C260.397 358.75 259.297 365.8 257.097 376C255.197 384.7 254.247 390.45 254.247 393.25C254.247 397.25 255.697 399.25 258.597 399.25C260.597 399.25 262.947 398.05 265.647 395.65C268.447 393.15 272.147 389.15 276.747 383.65C277.947 382.25 279.297 381.55 280.797 381.55C282.097 381.55 283.097 382.15 283.797 383.35C284.597 384.55 284.997 386.2 284.997 388.3C284.997 392.3 284.047 395.4 282.147 397.6C277.847 402.9 273.197 407.25 268.197 410.65C263.297 414.05 257.697 415.75 251.397 415.75C246.297 415.75 242.447 414.3 239.847 411.4C237.247 408.4 235.947 404.1 235.947 398.5C235.947 395.7 236.647 390.7 238.047 383.5C239.347 377.2 239.997 372.85 239.997 370.45C239.997 368.85 239.447 368.05 238.347 368.05C237.047 368.05 235.197 369.75 232.797 373.15C230.397 376.45 227.997 380.85 225.597 386.35C223.197 391.85 221.247 397.65 219.747 403.75C218.647 408.55 217.347 411.75 215.847 413.35C214.447 414.95 212.147 415.75 208.947 415.75C205.647 415.75 203.147 414.2 201.447 411.1C199.847 407.9 199.047 404.05 199.047 399.55C199.047 395.75 199.547 390.25 200.547 383.05C201.347 376.65 201.747 372.45 201.747 370.45C201.747 368.85 201.197 368.05 200.097 368.05C198.597 368.05 196.697 369.85 194.397 373.45C192.097 377.05 189.847 381.65 187.647 387.25C185.547 392.85 183.847 398.35 182.547 403.75C181.447 408.45 180.147 411.65 178.647 413.35C177.247 414.95 174.997 415.75 171.897 415.75ZM349.368 368.95C350.668 368.95 351.668 369.6 352.368 370.9C353.068 372.2 353.418 373.85 353.418 375.85C353.418 380.65 351.968 383.5 349.068 384.4C343.068 386.5 336.468 387.7 329.268 388C327.368 396.4 323.618 403.15 318.018 408.25C312.418 413.25 306.068 415.75 298.968 415.75C292.968 415.75 287.818 414.3 283.518 411.4C279.318 408.5 276.118 404.65 273.918 399.85C271.718 395.05 270.618 389.85 270.618 384.25C270.618 376.65 272.068 369.9 274.968 364C277.868 358 281.868 353.35 286.968 350.05C292.068 346.65 297.718 344.95 303.918 344.95C311.518 344.95 317.618 347.6 322.218 352.9C326.918 358.1 329.668 364.55 330.468 372.25C335.168 371.95 340.768 370.95 347.268 369.25C348.068 369.05 348.768 368.95 349.368 368.95ZM300.168 399.85C303.368 399.85 306.118 398.55 308.418 395.95C310.818 393.35 312.418 389.6 313.218 384.7C310.118 382.6 307.718 379.85 306.018 376.45C304.418 373.05 303.618 369.45 303.618 365.65C303.618 364.05 303.768 362.45 304.068 360.85H303.318C299.318 360.85 295.968 362.8 293.268 366.7C290.668 370.5 289.368 375.9 289.368 382.9C289.368 388.4 290.418 392.6 292.518 395.5C294.718 398.4 297.268 399.85 300.168 399.85ZM394.244 386.05C395.544 386.05 396.544 386.65 397.244 387.85C398.044 389.05 398.444 390.7 398.444 392.8C398.444 396.4 397.594 399.5 395.894 402.1C393.094 406.4 389.394 409.75 384.794 412.15C380.294 414.55 374.894 415.75 368.594 415.75C358.994 415.75 351.544 412.9 346.244 407.2C340.944 401.4 338.294 393.6 338.294 383.8C338.294 376.9 339.744 370.5 342.644 364.6C345.544 358.6 349.544 353.85 354.644 350.35C359.844 346.85 365.694 345.1 372.194 345.1C377.994 345.1 382.644 346.85 386.144 350.35C389.644 353.75 391.394 358.4 391.394 364.3C391.394 371.2 388.894 377.15 383.894 382.15C378.994 387.05 370.594 390.95 358.694 393.85C361.094 398.45 365.144 400.75 370.844 400.75C374.944 400.75 378.294 399.8 380.894 397.9C383.594 396 386.694 392.8 390.194 388.3C391.394 386.8 392.744 386.05 394.244 386.05ZM369.644 359.8C365.944 359.8 362.794 361.95 360.194 366.25C357.694 370.55 356.444 375.75 356.444 381.85V382.15C362.344 380.75 366.994 378.65 370.394 375.85C373.794 373.05 375.494 369.8 375.494 366.1C375.494 364.2 374.944 362.7 373.844 361.6C372.844 360.4 371.444 359.8 369.644 359.8Z" fill="#FFFFFE"/>
</g>
<defs>
<clipPath id="clip0_1_2">
<rect width="512" height="512" fill="white"/>
</clipPath>
</defs>
</svg>
