<svg width="720" height="170" viewBox="0 0 720 170" fill="none" xmlns="http://www.w3.org/2000/svg">
<g clip-path="url(#clip0_2_85)">
<path d="M121.069 25.0986H25.0986V144.745H96.9717V96.9717H48.9854V72.873H121.069V168.844H1V1H121.069V25.0986Z" fill="#FFFFFE"/>
<path d="M256.782 96.9717H160.811V168.844H136.713V72.873H232.684V25.0986H136.713V1H256.782V96.9717Z" fill="#FFFFFE"/>
<path d="M392.284 96.9717H322.102L392.284 150.876V168.844H368.185L272.425 96.9717V72.873H368.185V25.0986H272.425V1H392.284V96.9717Z" fill="#FFFFFE"/>
<path d="M420.341 168.85C415.355 168.85 411.558 167.49 408.951 164.77C406.458 162.05 405.211 158.48 405.211 154.06C405.211 148.96 406.628 144.88 409.461 141.82C412.408 138.76 416.488 137.23 421.701 137.23C426.688 137.23 430.428 138.477 432.921 140.97C435.528 143.35 436.831 146.92 436.831 151.68C436.831 156.893 435.358 161.087 432.411 164.26C429.465 167.32 425.441 168.85 420.341 168.85ZM462.683 168.85C458.376 168.85 455.316 166.583 453.503 162.05C451.803 157.517 450.953 150.263 450.953 140.29C450.953 125.557 453.05 111.56 457.243 98.3C458.263 95.0133 459.906 92.6333 462.173 91.16C464.553 89.5733 467.84 88.78 472.033 88.78C474.3 88.78 475.886 89.0633 476.793 89.63C477.7 90.1967 478.153 91.2733 478.153 92.86C478.153 94.6733 477.303 98.7533 475.603 105.1C474.47 109.633 473.563 113.6 472.883 117C472.203 120.287 471.636 124.423 471.183 129.41C474.243 120.57 477.87 113.09 482.063 106.97C486.37 100.85 490.733 96.3167 495.153 93.37C499.686 90.31 503.936 88.78 507.903 88.78C511.87 88.78 514.646 89.6867 516.233 91.5C517.933 93.3133 518.783 96.09 518.783 99.83C518.783 103.457 517.706 110.03 515.553 119.55C514.646 123.63 514.023 126.69 513.683 128.73C519.35 114.79 525.64 104.647 532.553 98.3C539.466 91.9533 545.926 88.78 551.933 88.78C559.3 88.78 562.983 92.4633 562.983 99.83C562.983 104.25 561.736 112.24 559.243 123.8C557.09 133.66 556.013 140.177 556.013 143.35C556.013 147.883 557.656 150.15 560.943 150.15C563.21 150.15 565.873 148.79 568.933 146.07C572.106 143.237 576.3 138.703 581.513 132.47C582.873 130.883 584.403 130.09 586.103 130.09C587.576 130.09 588.71 130.77 589.503 132.13C590.41 133.49 590.863 135.36 590.863 137.74C590.863 142.273 589.786 145.787 587.633 148.28C582.76 154.287 577.49 159.217 571.823 163.07C566.27 166.923 559.923 168.85 552.783 168.85C547.003 168.85 542.64 167.207 539.693 163.92C536.746 160.52 535.273 155.647 535.273 149.3C535.273 146.127 536.066 140.46 537.653 132.3C539.126 125.16 539.863 120.23 539.863 117.51C539.863 115.697 539.24 114.79 537.993 114.79C536.52 114.79 534.423 116.717 531.703 120.57C528.983 124.31 526.263 129.297 523.543 135.53C520.823 141.763 518.613 148.337 516.913 155.25C515.666 160.69 514.193 164.317 512.493 166.13C510.906 167.943 508.3 168.85 504.673 168.85C500.933 168.85 498.1 167.093 496.173 163.58C494.36 159.953 493.453 155.59 493.453 150.49C493.453 146.183 494.02 139.95 495.153 131.79C496.06 124.537 496.513 119.777 496.513 117.51C496.513 115.697 495.89 114.79 494.643 114.79C492.943 114.79 490.79 116.83 488.183 120.91C485.576 124.99 483.026 130.203 480.533 136.55C478.153 142.897 476.226 149.13 474.753 155.25C473.506 160.577 472.033 164.203 470.333 166.13C468.746 167.943 466.196 168.85 462.683 168.85ZM663.817 115.81C665.29 115.81 666.424 116.547 667.217 118.02C668.01 119.493 668.407 121.363 668.407 123.63C668.407 129.07 666.764 132.3 663.477 133.32C656.677 135.7 649.197 137.06 641.037 137.4C638.884 146.92 634.634 154.57 628.287 160.35C621.94 166.017 614.744 168.85 606.697 168.85C599.897 168.85 594.06 167.207 589.187 163.92C584.427 160.633 580.8 156.27 578.307 150.83C575.814 145.39 574.567 139.497 574.567 133.15C574.567 124.537 576.21 116.887 579.497 110.2C582.784 103.4 587.317 98.13 593.097 94.39C598.877 90.5367 605.28 88.61 612.307 88.61C620.92 88.61 627.834 91.6133 633.047 97.62C638.374 103.513 641.49 110.823 642.397 119.55C647.724 119.21 654.07 118.077 661.437 116.15C662.344 115.923 663.137 115.81 663.817 115.81ZM608.057 150.83C611.684 150.83 614.8 149.357 617.407 146.41C620.127 143.463 621.94 139.213 622.847 133.66C619.334 131.28 616.614 128.163 614.687 124.31C612.874 120.457 611.967 116.377 611.967 112.07C611.967 110.257 612.137 108.443 612.477 106.63H611.627C607.094 106.63 603.297 108.84 600.237 113.26C597.29 117.567 595.817 123.687 595.817 131.62C595.817 137.853 597.007 142.613 599.387 145.9C601.88 149.187 604.77 150.83 608.057 150.83ZM714.676 135.19C716.15 135.19 717.283 135.87 718.076 137.23C718.983 138.59 719.436 140.46 719.436 142.84C719.436 146.92 718.473 150.433 716.546 153.38C713.373 158.253 709.18 162.05 703.966 164.77C698.866 167.49 692.746 168.85 685.606 168.85C674.726 168.85 666.283 165.62 660.276 159.16C654.27 152.587 651.266 143.747 651.266 132.64C651.266 124.82 652.91 117.567 656.196 110.88C659.483 104.08 664.016 98.6967 669.796 94.73C675.69 90.7633 682.32 88.78 689.686 88.78C696.26 88.78 701.53 90.7633 705.496 94.73C709.463 98.5833 711.446 103.853 711.446 110.54C711.446 118.36 708.613 125.103 702.946 130.77C697.393 136.323 687.873 140.743 674.386 144.03C677.106 149.243 681.696 151.85 688.156 151.85C692.803 151.85 696.6 150.773 699.546 148.62C702.606 146.467 706.12 142.84 710.086 137.74C711.446 136.04 712.976 135.19 714.676 135.19ZM686.796 105.44C682.603 105.44 679.033 107.877 676.086 112.75C673.253 117.623 671.836 123.517 671.836 130.43V130.77C678.523 129.183 683.793 126.803 687.646 123.63C691.5 120.457 693.426 116.773 693.426 112.58C693.426 110.427 692.803 108.727 691.556 107.48C690.423 106.12 688.836 105.44 686.796 105.44Z" fill="#FFFFFE"/>
</g>
<defs>
<clipPath id="clip0_2_85">
<rect width="720" height="170" fill="white"/>
</clipPath>
</defs>
</svg>
